<svg xmlns="http://www.w3.org/2000/svg"  viewBox="0 0 100 100" width="100px" height="100px"><path fill="#fed5b3" d="M71,82H29c-6.075,0-11-4.925-11-11V29c0-6.075,4.925-11,11-11h42c6.075,0,11,4.925,11,11v42C82,77.075,77.075,82,71,82z"/><path fill="#d68f53" d="M18,39V29c0-6.075,4.925-11,11-11h42c6.075,0,11,4.925,11,11v10H18z"/><path fill="#f15b6c" d="M26 38L22 38 22 20 26 19z"/><path fill="#f9e65c" d="M25 38L29 38 29 18 25 19z"/><path fill="#a1d3a2" d="M28 18H32V38H28z"/><path fill="#39c2d8" d="M31 18H35V38H31z"/><path fill="#b77748" d="M66.5 24.5H74.5V32.5H66.5z"/><path fill="#fefdef" d="M50 34A16 16 0 1 0 50 66A16 16 0 1 0 50 34Z"/><path fill="#8f9eb6" d="M50 39A11 11 0 1 0 50 61A11 11 0 1 0 50 39Z"/><path fill="#78cdd4" d="M45.036 41.072A3.964 3.964 0 1 0 45.036 49A3.964 3.964 0 1 0 45.036 41.072Z"/><path fill="#b77748" d="M32.5,36.5h-8c-1.105,0-2,0.895-2,2c0,1.105,0.895,2,2,2h8c1.105,0,2-0.895,2-2C34.5,37.395,33.605,36.5,32.5,36.5z"/><path fill="#1f212b" d="M49.964,65.928c-2.551,0-5.089-0.617-7.341-1.783C37.305,61.385,34,55.951,34,49.964C34,41.161,41.161,34,49.964,34s15.964,7.161,15.964,15.964S58.767,65.928,49.964,65.928z M49.964,35C41.713,35,35,41.713,35,49.964c0,5.612,3.098,10.706,8.084,13.292c2.14,1.109,4.454,1.672,6.88,1.672c8.251,0,14.964-6.713,14.964-14.964S58.215,35,49.964,35z"/><path fill="#1f212b" d="M67.5 39h-7c-.276 0-.5-.224-.5-.5s.224-.5.5-.5h7c.276 0 .5.224.5.5S67.776 39 67.5 39zM39.5 39h-5c-.276 0-.5-.224-.5-.5s.224-.5.5-.5h5c.276 0 .5.224.5.5S39.776 39 39.5 39zM22.5 39h-4c-.276 0-.5-.224-.5-.5s.224-.5.5-.5h4c.276 0 .5.224.5.5S22.776 39 22.5 39zM81.5 39h-11c-.276 0-.5-.224-.5-.5s.224-.5.5-.5h11c.276 0 .5.224.5.5S81.776 39 81.5 39z"/><path fill="#1f212b" d="M71,83H29c-6.617,0-12-5.383-12-12V29c0-6.617,5.383-12,12-12h42c6.617,0,12,5.383,12,12v42C83,77.617,77.617,83,71,83z M29,19c-5.514,0-10,4.486-10,10v42c0,5.514,4.486,10,10,10h42c5.514,0,10-4.486,10-10V29c0-5.514-4.486-10-10-10H29z"/><path fill="#1f212b" d="M50 61c-6.065 0-11-4.935-11-11s4.935-11 11-11c4.647 0 8.814 2.941 10.368 7.319.093.26-.043.546-.304.639-.259.09-.546-.045-.639-.305C58.014 42.674 54.226 40 50 40c-5.514 0-10 4.486-10 10s4.486 10 10 10c.276 0 .5.224.5.5S50.276 61 50 61zM60.488 50.001c-.266 0-.487-.209-.499-.477-.016-.322-.046-.641-.091-.954-.039-.273.151-.526.425-.565.268-.034.525.15.565.425.049.345.083.694.099 1.048.014.276-.2.51-.476.522C60.504 50.001 60.496 50.001 60.488 50.001z"/><path fill="#1f212b" d="M45.036 49c-.642 0-1.255-.149-1.822-.442-1.321-.687-2.142-2.035-2.142-3.521 0-2.186 1.778-3.964 3.964-3.964S49 42.851 49 45.036 47.222 49 45.036 49zM45.036 42.072c-1.635 0-2.964 1.329-2.964 2.964 0 1.111.613 2.12 1.602 2.634.424.219.882.33 1.362.33C46.671 48 48 46.671 48 45.036S46.671 42.072 45.036 42.072zM74.5 33h-8c-.276 0-.5-.224-.5-.5v-8c0-.276.224-.5.5-.5h8c.276 0 .5.224.5.5v8C75 32.776 74.776 33 74.5 33zM67 32h7v-7h-7V32zM22.5 34c-.276 0-.5-.224-.5-.5v-13c0-.276.224-.5.5-.5s.5.224.5.5v13C23 33.776 22.776 34 22.5 34zM31.5 37c-.276 0-.5-.224-.5-.5v-15c0-.276.224-.5.5-.5s.5.224.5.5v15C32 36.776 31.776 37 31.5 37zM34.5 39c-.276 0-.5-.224-.5-.5v-4c0-.276.224-.5.5-.5s.5.224.5.5v4C35 38.776 34.776 39 34.5 39zM34.5 32c-.276 0-.5-.224-.5-.5v-2c0-.276.224-.5.5-.5s.5.224.5.5v2C35 31.776 34.776 32 34.5 32zM34.5 27c-.276 0-.5-.224-.5-.5v-8c0-.276.224-.5.5-.5s.5.224.5.5v8C35 26.776 34.776 27 34.5 27zM28.5 26c-.276 0-.5-.224-.5-.5v-7c0-.276.224-.5.5-.5s.5.224.5.5v7C29 25.776 28.776 26 28.5 26zM28.5 37c-.276 0-.5-.224-.5-.5v-8c0-.276.224-.5.5-.5s.5.224.5.5v8C29 36.776 28.776 37 28.5 37zM25.5 37c-.276 0-.5-.224-.5-.5v-2c0-.276.224-.5.5-.5s.5.224.5.5v2C26 36.776 25.776 37 25.5 37zM25.5 32c-.276 0-.5-.224-.5-.5v-13c0-.276.224-.5.5-.5s.5.224.5.5v13C26 31.776 25.776 32 25.5 32z"/><path fill="#1f212b" d="M32.5,41h-8c-1.379,0-2.5-1.121-2.5-2.5s1.121-2.5,2.5-2.5h8c1.379,0,2.5,1.121,2.5,2.5S33.879,41,32.5,41z M24.5,37c-0.827,0-1.5,0.673-1.5,1.5s0.673,1.5,1.5,1.5h8c0.827,0,1.5-0.673,1.5-1.5S33.327,37,32.5,37H24.5z"/></svg>